<?xml version="1.0" encoding="utf-8"?>
<!-- Uploaded to: SVG Repo, www.svgrepo.com, Generator: SVG Repo Mixer Tools -->
<svg fill="#000000" width="800px" height="800px" viewBox="0 0 32 32" version="1.1" xmlns="http://www.w3.org/2000/svg">
<title>backpack</title>
<path d="M21.532 6.417c-0.519-6.748-10.723-6.746-11.232 0.012-3.076 1.249-5.205 4.214-5.205 7.676 0 0.071 0.001 0.142 0.003 0.213l-0-0.010v15.692c0 0.414 0.336 0.75 0.75 0.75h20.308c0.414-0 0.75-0.336 0.75-0.75v0-15.701c-0.031-3.553-2.218-6.588-5.316-7.861l-0.057-0.021zM15.916 2.75c0.021-0 0.046-0.001 0.071-0.001 1.077 0 2.061 0.396 2.816 1.049l-0.005-0.005c0.572 0.525 0.98 1.22 1.146 2.004l0.004 0.025c-1.185-0.364-2.547-0.574-3.959-0.574-0.092 0-0.183 0.001-0.274 0.003l0.014-0c-1.378 0.015-2.7 0.225-3.95 0.604l0.1-0.026c0.427-1.78 2.004-3.082 3.886-3.082 0.053 0 0.106 0.001 0.159 0.003l-0.008-0zM20.25 22.25h-8.767v-2.5h8.767zM11.483 29.25v-5.5h8.767v5.5zM25.404 29.25h-3.654v-10.25c-0-0.414-0.336-0.75-0.75-0.75h-10.267c-0.414 0-0.75 0.336-0.75 0.75v0 10.25h-3.387v-14.951c-0.061-5.109 4.7-7.494 9.15-7.548 0.107-0.003 0.232-0.005 0.358-0.005 1.544 0 3.020 0.289 4.378 0.816l-0.083-0.028c0.097 0.072 0.216 0.121 0.345 0.136l0.003 0c2.728 1.027 4.636 3.607 4.655 6.636v0.002zM21 12.25h-10c-0.414 0-0.75 0.336-0.75 0.75s0.336 0.75 0.75 0.75v0h10c0.414 0 0.75-0.336 0.75-0.75s-0.336-0.75-0.75-0.75v0z"></path>
</svg>